<svg width="30" height="30" viewBox="0 0 30 30" fill="none" xmlns="http://www.w3.org/2000/svg">
<g id="Search">
<path id="Vector" d="M19.9625 21.2887C18.1138 22.8363 15.7325 23.77 13.1362 23.77C7.265 23.77 2.5 19.005 2.5 13.135C2.5 7.265 7.265 2.5 13.1362 2.5C19.005 2.5 23.7712 7.265 23.7712 13.135C23.7712 15.7325 22.8375 18.115 21.29 19.9613L27.2262 25.8988C27.4088 26.0812 27.5 26.3213 27.5 26.5625C27.5 27.2962 26.8288 27.5 26.5625 27.5C26.3225 27.5 26.0825 27.4088 25.8988 27.225L19.9625 21.2887ZM13.1362 4.37625C8.30125 4.37625 4.3775 8.30125 4.3775 13.135C4.3775 17.9688 8.30125 21.8937 13.1362 21.8937C17.9688 21.8937 21.895 17.9688 21.895 13.135C21.895 8.30125 17.9688 4.37625 13.1362 4.37625Z" fill="#FF69B5"/>
</g>
</svg>
